<svg width="21.000000" height="21.000000" viewBox="0 0 21 21" fill="none" xmlns="http://www.w3.org/2000/svg" xmlns:xlink="http://www.w3.org/1999/xlink">
	<desc>
			Created with Pixso.
	</desc>
	<defs>
		<clipPath id="clip54_26">
			<rect id="1161953_instagram_icon" width="21.000000" height="21.000000" fill="white" fill-opacity="0"/>
		</clipPath>
	</defs>
	<g clip-path="url(#clip54_26)">
		<path id="path" d="M10.38 6.15C7.81 6.15 5.67 8.25 5.67 10.86C5.67 13.48 7.77 15.58 10.38 15.58C13 15.58 15.1 13.44 15.1 10.86C15.1 8.28 12.96 6.15 10.38 6.15ZM10.38 13.88C8.73 13.88 7.36 12.52 7.36 10.86C7.36 9.2 8.73 7.84 10.38 7.84C12.04 7.84 13.41 9.2 13.41 10.86C13.41 12.52 12.04 13.88 10.38 13.88Z" fill="#FFFFFF" fill-opacity="1.000000" fill-rule="nonzero"/>
		<ellipse id="circle" cx="15.289490" cy="6.041992" rx="1.068422" ry="1.068424" fill="#FFFFFF" fill-opacity="1.000000"/>
		<path id="path" d="M18.05 3.27C17.09 2.28 15.73 1.76 14.18 1.76L6.59 1.76C3.38 1.76 1.25 3.9 1.25 7.11L1.25 14.66C1.25 16.24 1.76 17.61 2.79 18.6C3.79 19.56 5.12 20.04 6.63 20.04L14.14 20.04C15.73 20.04 17.05 19.52 18.01 18.6C19.01 17.64 19.52 16.28 19.52 14.7L19.52 7.11C19.52 5.56 19.01 4.23 18.05 3.27ZM17.9 14.7C17.9 15.84 17.5 16.76 16.83 17.38C16.17 18.01 15.25 18.34 14.14 18.34L6.63 18.34C5.52 18.34 4.6 18.01 3.94 17.38C3.27 16.72 2.94 15.8 2.94 14.66L2.94 7.11C2.94 6 3.27 5.08 3.94 4.42C4.56 3.79 5.52 3.46 6.63 3.46L14.22 3.46C15.32 3.46 16.24 3.79 16.91 4.45C17.53 5.12 17.9 6.04 17.9 7.11L17.9 14.7Z" fill="#FFFFFF" fill-opacity="1.000000" fill-rule="nonzero"/>
	</g>
</svg>
