<svg width="21.000000" height="21.000000" viewBox="0 0 21 21" fill="none" xmlns="http://www.w3.org/2000/svg" xmlns:xlink="http://www.w3.org/1999/xlink">
	<desc>
			Created with Pixso.
	</desc>
	<defs>
		<clipPath id="clip54_34">
			<rect id="352521_location_on_icon" width="21.000000" height="21.000000" fill="white" fill-opacity="0"/>
		</clipPath>
	</defs>
	<g clip-path="url(#clip54_34)">
		<path id="path" d="M10.5 1.75C7.11 1.75 4.37 4.49 4.37 7.87C4.37 12.46 10.5 19.25 10.5 19.25C10.5 19.25 16.62 12.46 16.62 7.87C16.62 4.49 13.88 1.75 10.5 1.75ZM10.5 10.06C9.29 10.06 8.31 9.08 8.31 7.87C8.31 6.66 9.29 5.68 10.5 5.68C11.7 5.68 12.68 6.66 12.68 7.87C12.68 9.08 11.7 10.06 10.5 10.06Z" fill="#FFFFFF" fill-opacity="1.000000" fill-rule="nonzero"/>
		<path id="path" d="M0 0L21 0L21 21L0 21L0 0Z" fill="#000000" fill-opacity="0" fill-rule="nonzero"/>
	</g>
</svg>
