<svg width="21.000000" height="21.000000" viewBox="0 0 21 21" fill="none" xmlns="http://www.w3.org/2000/svg" xmlns:xlink="http://www.w3.org/1999/xlink">
	<desc>
			Created with Pixso.
	</desc>
	<defs>
		<clipPath id="clip54_31">
			<rect id="5340247_chat_media_network_social_telegram_icon" width="21.000000" height="21.000000" fill="white" fill-opacity="0"/>
		</clipPath>
	</defs>
	<g clip-path="url(#clip54_31)">
		<path id="path" d="M18.76 2.81C18.31 2.43 17.81 2.35 17.27 2.57L2.23 8.59C1.74 8.8 1.49 9.17 1.49 9.7C1.49 10.24 1.74 10.61 2.23 10.81L3.2 11.21C3.61 11.38 3.89 11.26 4.06 10.86C4.23 10.46 4.12 10.17 3.71 10L2.99 9.71L17.76 3.8C17.81 3.77 17.86 3.77 17.91 3.8C17.96 3.84 17.98 3.89 17.96 3.95L15.27 16.54C15.25 16.64 15.19 16.7 15.1 16.74C15 16.77 14.92 16.76 14.84 16.7L9.59 12.6L14.73 7.41C14.99 7.14 15.01 6.85 14.77 6.55C14.54 6.25 14.26 6.2 13.93 6.39L6.39 10.85C6.22 10.93 6.1 11.06 6.04 11.25C5.98 11.43 6 11.61 6.1 11.78C6.19 11.95 6.34 12.05 6.53 12.09C6.72 12.13 6.89 12.09 7.05 11.98L10.22 10.11L8.68 11.68C8.38 11.96 8.24 12.31 8.27 12.72C8.29 13.13 8.47 13.46 8.81 13.7L14.06 17.73C14.34 17.95 14.66 18.06 15.02 18.06C15.21 18.06 15.39 18.03 15.57 17.96C16.11 17.77 16.45 17.38 16.57 16.82L19.24 4.24C19.37 3.67 19.21 3.19 18.76 2.81Z" fill="#FFFFFF" fill-opacity="1.000000" fill-rule="nonzero"/>
	</g>
</svg>
