<svg width="21.000000" height="21.000000" viewBox="0 0 21 21" fill="none" xmlns="http://www.w3.org/2000/svg" xmlns:xlink="http://www.w3.org/1999/xlink">
	<desc>
			Created with Pixso.
	</desc>
	<defs>
		<clipPath id="clip54_22">
			<rect id="843786_whatsapp_icon" width="21.000000" height="21.000000" fill="white" fill-opacity="0"/>
		</clipPath>
	</defs>
	<g clip-path="url(#clip54_22)">
		<path id="path" d="M17.39 3.94C15.64 2.23 13.32 1.28 10.85 1.28C5.76 1.28 1.62 5.35 1.61 10.36C1.61 11.96 2.04 13.52 2.85 14.89L1.54 19.6L6.43 18.33C7.78 19.06 9.3 19.44 10.85 19.44C15.94 19.44 20.09 15.37 20.09 10.36C20.09 7.94 19.13 5.66 17.39 3.94ZM10.85 17.91C9.47 17.91 8.12 17.54 6.94 16.85L6.66 16.69L3.75 17.44L4.53 14.66L4.35 14.37C3.58 13.17 3.17 11.78 3.17 10.36C3.18 6.2 6.62 2.81 10.86 2.81C12.91 2.81 14.83 3.6 16.28 5.03C17.73 6.45 18.53 8.35 18.53 10.36C18.53 14.52 15.08 17.91 10.85 17.91Z" fill="#FFFFFF" fill-opacity="1.000000" fill-rule="evenodd"/>
		<path id="path" d="M15.06 12.26C14.83 12.14 13.7 11.59 13.49 11.52C13.28 11.44 13.12 11.41 12.97 11.63C12.81 11.86 12.37 12.37 12.24 12.52C12.1 12.67 11.97 12.69 11.74 12.58C11.51 12.46 10.76 12.23 9.88 11.45C9.19 10.85 8.73 10.11 8.6 9.88C8.46 9.66 8.58 9.53 8.7 9.42C8.8 9.32 8.93 9.15 9.04 9.02C9.16 8.89 9.2 8.79 9.27 8.64C9.35 8.49 9.31 8.36 9.26 8.25C9.2 8.13 8.74 7.02 8.54 6.56C8.36 6.12 8.17 6.18 8.02 6.17C7.89 6.17 7.74 6.16 7.58 6.16C7.43 6.16 7.18 6.22 6.97 6.45C6.75 6.68 6.16 7.22 6.16 8.34C6.16 9.46 6.99 10.54 7.1 10.69C7.22 10.84 8.73 13.13 11.04 14.11C11.6 14.34 12.03 14.48 12.36 14.59C12.91 14.76 13.42 14.74 13.81 14.68C14.26 14.61 15.18 14.13 15.37 13.6C15.56 13.07 15.56 12.62 15.51 12.52C15.45 12.43 15.3 12.37 15.06 12.26Z" fill="#FFFFFF" fill-opacity="1.000000" fill-rule="evenodd"/>
	</g>
</svg>
