<svg width="17.000000" height="17.000000" viewBox="0 0 17 17" fill="none" xmlns="http://www.w3.org/2000/svg" xmlns:xlink="http://www.w3.org/1999/xlink">
	<desc>
			Created with Pixso.
	</desc>
	<defs>
		<clipPath id="clip8_753">
			<rect id="free-icon-font-bullseye-arrow-9795295.svg" width="17.000000" height="17.000000" fill="white" fill-opacity="0"/>
		</clipPath>
	</defs>
	<g clip-path="url(#clip8_753)">
		<path id="path" d="M16.8 6.65C16.93 7.25 17 7.87 17 8.5C17 13.18 13.18 17 8.5 17C3.81 17 0 13.18 0 8.5C0 3.81 3.81 0 8.5 0C9.12 0 9.74 0.07 10.34 0.19C10.54 0.24 10.66 0.43 10.61 0.62C10.57 0.81 10.38 0.93 10.19 0.89C9.64 0.77 9.06 0.7 8.5 0.7C4.2 0.7 0.7 4.2 0.7 8.5C0.7 12.79 4.2 16.29 8.5 16.29C12.79 16.29 16.29 12.79 16.29 8.5C16.29 7.92 16.22 7.35 16.1 6.8C16.06 6.61 16.18 6.42 16.37 6.38C16.56 6.33 16.75 6.46 16.8 6.65ZM9.49 3.64C9.68 3.67 9.86 3.55 9.9 3.36C9.94 3.17 9.82 2.98 9.63 2.94C9.26 2.86 8.88 2.83 8.5 2.83C5.37 2.83 2.83 5.37 2.83 8.5C2.83 11.62 5.37 14.16 8.5 14.16C11.62 14.16 14.16 11.62 14.16 8.5C14.16 8.11 14.13 7.73 14.05 7.36C14.01 7.17 13.82 7.05 13.63 7.09C13.44 7.13 13.31 7.31 13.35 7.5C13.42 7.83 13.45 8.16 13.45 8.5C13.45 11.23 11.23 13.45 8.5 13.45C5.76 13.45 3.54 11.23 3.54 8.5C3.54 5.76 5.76 3.54 8.5 3.54C8.83 3.54 9.16 3.57 9.49 3.64ZM8.19 6.39C8.38 6.36 8.52 6.19 8.49 5.99C8.46 5.79 8.28 5.65 8.08 5.69C6.7 5.89 5.65 7.09 5.65 8.5C5.65 10.06 6.92 11.33 8.49 11.33C9.89 11.33 11.09 10.29 11.29 8.9C11.32 8.71 11.19 8.52 11 8.5C10.8 8.47 10.62 8.6 10.59 8.79C10.44 9.83 9.54 10.61 8.49 10.61C7.32 10.61 6.36 9.66 6.36 8.49C6.36 7.44 7.15 6.54 8.19 6.39ZM11.33 5.16L11.33 3.06C11.33 2.59 11.51 2.14 11.85 1.81L13.56 0.1C13.66 0 13.81 -0.03 13.94 0.02C14.08 0.08 14.16 0.21 14.16 0.35L14.16 2.83L16.64 2.83C16.78 2.83 16.91 2.91 16.97 3.05C17.02 3.18 16.99 3.33 16.89 3.43L15.18 5.14C14.85 5.47 14.4 5.65 13.93 5.65L11.83 5.65L8.75 8.74C8.68 8.81 8.59 8.84 8.5 8.84C8.42 8.84 8.32 8.81 8.25 8.74C8.11 8.59 8.11 8.37 8.25 8.23L11.33 5.16ZM12.04 4.95L13.93 4.95C14.21 4.95 14.48 4.84 14.68 4.64L15.78 3.54L13.81 3.54C13.61 3.54 13.45 3.38 13.45 3.18L13.45 1.21L12.35 2.31C12.15 2.51 12.04 2.78 12.04 3.06L12.04 4.95Z" fill="#000000" fill-opacity="1.000000" fill-rule="nonzero"/>
	</g>
</svg>
