<svg width="21.000000" height="21.000000" viewBox="0 0 21 21" fill="none" xmlns="http://www.w3.org/2000/svg" xmlns:xlink="http://www.w3.org/1999/xlink">
	<desc>
			Created with Pixso.
	</desc>
	<defs>
		<clipPath id="clip54_37">
			<rect id="3669395_call_ic_icon" width="21.000000" height="21.000000" fill="white" fill-opacity="0"/>
		</clipPath>
	</defs>
	<g clip-path="url(#clip54_37)">
		<path id="path" d="M0 0L21 0L21 21L0 21L0 0Z" fill="#000000" fill-opacity="0" fill-rule="nonzero"/>
		<path id="path" d="M5.79 9.44C7.05 11.92 9.08 13.94 11.56 15.2L13.48 13.27C13.72 13.03 14.07 12.96 14.37 13.06C15.35 13.38 16.41 13.56 17.5 13.56C17.98 13.56 18.37 13.95 18.37 14.43L18.37 17.5C18.37 17.98 17.98 18.37 17.5 18.37C9.28 18.37 2.62 11.71 2.62 3.5C2.62 3.01 3.01 2.62 3.5 2.62L6.56 2.62C7.04 2.62 7.43 3.01 7.43 3.5C7.43 4.58 7.61 5.64 7.93 6.62C8.03 6.92 7.96 7.27 7.72 7.51L5.79 9.44Z" fill="#FFFFFF" fill-opacity="1.000000" fill-rule="nonzero"/>
	</g>
</svg>
