<svg width="21.000000" height="21.000000" viewBox="0 0 21 21" fill="none" xmlns="http://www.w3.org/2000/svg" xmlns:xlink="http://www.w3.org/1999/xlink">
	<desc>
			Created with Pixso.
	</desc>
	<defs>
		<clipPath id="clip54_40">
			<rect id="8665305_envelope_email_icon" width="21.000000" height="21.000000" fill="white" fill-opacity="0"/>
		</clipPath>
	</defs>
	<g clip-path="url(#clip54_40)">
		<path id="path" d="M10.5 14.43C9.82 14.43 9.14 14.21 8.56 13.76L0 7.1L0 16.4C0 17.49 0.88 18.37 1.96 18.37L19.03 18.37C20.11 18.37 21 17.49 21 16.4L21 7.1L12.43 13.76C11.85 14.21 11.17 14.43 10.5 14.43ZM0.66 5.95L9.37 12.73C10.03 13.24 10.96 13.24 11.63 12.73L20.33 5.95C20.71 5.63 21 5.12 21 4.59C21 3.5 20.11 2.62 19.03 2.62L1.96 2.62C0.88 2.62 0 3.5 0 4.59C0 5.12 0.24 5.63 0.66 5.95Z" fill="#FFFFFF" fill-opacity="1.000000" fill-rule="nonzero"/>
	</g>
</svg>
