<svg width="25.000000" height="25.000000" viewBox="0 0 25 25" fill="none" xmlns="http://www.w3.org/2000/svg" xmlns:xlink="http://www.w3.org/1999/xlink">
	<desc>
			Created with Pixso.
	</desc>
	<defs/>
	<path id="path" d="M25 12.77C25 11.75 24.91 11 24.73 10.22L12.75 10.22L12.75 14.86L19.78 14.86C19.64 16.01 18.87 17.75 17.17 18.91L17.15 19.07L20.93 21.94L21.2 21.97C23.61 19.79 25 16.58 25 12.77Z" fill="#4285F4" fill-opacity="1.000000" fill-rule="nonzero"/>
	<path id="path" d="M12.75 25C16.19 25 19.08 23.88 21.2 21.97L17.17 18.91C16.09 19.65 14.65 20.16 12.75 20.16C9.38 20.16 6.51 17.98 5.49 14.97L5.34 14.98L1.41 17.97L1.36 18.11C3.45 22.19 7.76 25 12.75 25Z" fill="#34A853" fill-opacity="1.000000" fill-rule="nonzero"/>
	<path id="path" d="M5.49 14.97C5.22 14.19 5.07 13.36 5.07 12.5C5.07 11.63 5.22 10.8 5.48 10.02L5.47 9.86L1.49 6.82L1.36 6.88C0.49 8.58 0 10.48 0 12.5C0 14.51 0.49 16.41 1.36 18.11L5.49 14.97Z" fill="#FBBC05" fill-opacity="1.000000" fill-rule="nonzero"/>
	<path id="path" d="M12.75 4.83C15.14 4.83 16.76 5.84 17.68 6.69L21.28 3.25C19.07 1.23 16.19 0 12.75 0C7.76 0 3.45 2.8 1.36 6.88L5.48 10.02C6.51 7.01 9.38 4.83 12.75 4.83Z" fill="#EB4335" fill-opacity="1.000000" fill-rule="nonzero"/>
</svg>
