<svg width="16.997192" height="17.000641" viewBox="0 0 16.9972 17.0006" fill="none" xmlns="http://www.w3.org/2000/svg" xmlns:xlink="http://www.w3.org/1999/xlink">
	<desc>
			Created with Pixso.
	</desc>
	<defs/>
	<path id="path" d="M0.23 3.06C-0.09 2.74 -0.09 2.21 0.24 1.89L1.99 0.1C2.12 -0.04 2.35 -0.04 2.49 0.1C2.63 0.23 2.63 0.46 2.49 0.6L1 2.12L2.47 2.12C3.84 2.12 4.95 3.23 4.95 4.6L4.95 6.02C4.95 6.21 4.79 6.37 4.6 6.37C4.4 6.37 4.25 6.21 4.25 6.02L4.25 4.6C4.25 3.62 3.45 2.83 2.47 2.83L1 2.83L2.49 4.35C2.63 4.49 2.63 4.72 2.49 4.85C2.35 4.99 2.12 4.99 1.98 4.85L0.23 3.06ZM6.72 6.37C6.92 6.37 7.08 6.21 7.08 6.02L7.08 4.6C7.08 3.62 7.87 2.83 8.85 2.83L10.32 2.83L8.83 4.35C8.7 4.49 8.7 4.72 8.84 4.85C8.98 4.99 9.2 4.99 9.34 4.85L11.09 3.06C11.25 2.9 11.33 2.69 11.33 2.47C11.33 2.27 11.25 2.05 11.09 1.89L9.34 0.1C9.2 -0.04 8.98 -0.04 8.84 0.1C8.7 0.23 8.69 0.46 8.83 0.6L10.32 2.12L8.85 2.12C7.48 2.12 6.37 3.23 6.37 4.6L6.37 6.02C6.37 6.21 6.53 6.37 6.72 6.37ZM16.54 9.33L11.72 14.74C10.45 16.17 8.62 17 6.7 17L2.47 17C1.11 17 0 15.88 0 14.52L0 10.97C0 9.61 1.11 8.5 2.47 8.5L9.46 8.5C10.31 8.5 11.04 9.07 11.26 9.86L13.9 6.95C14.53 6.23 15.72 6.18 16.41 6.83C17.13 7.49 17.19 8.61 16.54 9.33ZM15.94 7.36C15.52 6.96 14.8 6.99 14.43 7.43L11.24 10.93C11.03 11.6 10.45 12.12 9.72 12.22L5.35 12.74C5.16 12.77 4.98 12.63 4.96 12.43C4.93 12.24 5.07 12.06 5.27 12.04L9.63 11.52C10.19 11.44 10.62 10.94 10.62 10.37C10.62 9.73 10.1 9.2 9.46 9.2L2.47 9.2C1.5 9.2 0.7 10 0.7 10.97L0.7 14.52C0.7 15.49 1.5 16.29 2.47 16.29L6.7 16.29C8.41 16.29 10.05 15.55 11.2 14.27L16.02 8.86C16.4 8.42 16.37 7.75 15.94 7.36Z" fill="#000000" fill-opacity="1.000000" fill-rule="nonzero"/>
</svg>
