<svg width="17.000000" height="14.000000" viewBox="0 0 17 14" fill="none" xmlns="http://www.w3.org/2000/svg" xmlns:xlink="http://www.w3.org/1999/xlink">
	<desc>
			Created with Pixso.
	</desc>
	<defs>
		<clipPath id="clip8_787">
			<rect id="people-group-solid.svg" width="17.000000" height="14.000000" fill="white" fill-opacity="0"/>
		</clipPath>
	</defs>
	<g clip-path="url(#clip8_787)">
		<path id="path" d="M1.91 2.4C1.91 2.3 1.92 2.2 1.94 2.1C1.96 2 1.98 1.91 2.02 1.82C2.06 1.72 2.1 1.63 2.16 1.55C2.21 1.47 2.27 1.39 2.34 1.32C2.41 1.25 2.49 1.18 2.57 1.13C2.65 1.07 2.74 1.03 2.83 0.99C2.92 0.95 3.01 0.92 3.1 0.9C3.2 0.88 3.3 0.87 3.4 0.87C3.49 0.87 3.59 0.88 3.69 0.9C3.78 0.92 3.87 0.95 3.96 0.99C4.05 1.03 4.14 1.07 4.22 1.13C4.3 1.18 4.38 1.25 4.45 1.32C4.52 1.39 4.58 1.47 4.63 1.55C4.69 1.63 4.73 1.72 4.77 1.82C4.81 1.91 4.83 2 4.85 2.1C4.87 2.2 4.88 2.3 4.88 2.4C4.88 2.5 4.87 2.6 4.85 2.7C4.83 2.8 4.81 2.89 4.77 2.99C4.73 3.08 4.69 3.17 4.63 3.25C4.58 3.34 4.52 3.41 4.45 3.48C4.38 3.56 4.3 3.62 4.22 3.67C4.14 3.73 4.05 3.78 3.96 3.82C3.87 3.85 3.78 3.88 3.69 3.9C3.59 3.92 3.49 3.93 3.4 3.93C3.3 3.93 3.2 3.92 3.1 3.9C3.01 3.88 2.92 3.85 2.83 3.82C2.74 3.78 2.65 3.73 2.57 3.67C2.49 3.62 2.41 3.56 2.34 3.48C2.27 3.41 2.21 3.34 2.16 3.25C2.1 3.17 2.06 3.08 2.02 2.99C1.98 2.89 1.96 2.8 1.94 2.7C1.92 2.6 1.91 2.5 1.91 2.4ZM1.69 6.71C1.43 7.02 1.27 7.43 1.27 7.87C1.27 8.31 1.43 8.72 1.69 9.03L1.69 6.71L1.69 6.71ZM5.53 5.37C4.74 6.08 4.25 7.14 4.25 8.31C4.25 9.25 4.56 10.11 5.09 10.78L5.09 11.37C5.09 11.85 4.72 12.25 4.25 12.25L2.55 12.25C2.07 12.25 1.69 11.85 1.69 11.37L1.69 10.64C0.69 10.14 0 9.09 0 7.87C0 6.18 1.33 4.81 2.97 4.81L3.82 4.81C4.46 4.81 5.05 5.02 5.53 5.37ZM11.9 11.37L11.9 10.78C12.43 10.11 12.75 9.25 12.75 8.31C12.75 7.14 12.25 6.08 11.46 5.36C11.94 5.01 12.53 4.81 13.17 4.81L14.02 4.81C15.66 4.81 17 6.18 17 7.87C17 9.09 16.3 10.14 15.3 10.64L15.3 11.37C15.3 11.85 14.92 12.25 14.45 12.25L12.75 12.25C12.27 12.25 11.9 11.85 11.9 11.37ZM12.11 2.4C12.11 2.3 12.12 2.2 12.14 2.1C12.16 2 12.18 1.91 12.22 1.82C12.26 1.72 12.3 1.63 12.36 1.55C12.41 1.47 12.47 1.39 12.54 1.32C12.61 1.25 12.69 1.18 12.77 1.13C12.85 1.07 12.94 1.03 13.03 0.99C13.12 0.95 13.21 0.92 13.3 0.9C13.4 0.88 13.5 0.87 13.6 0.87C13.69 0.87 13.79 0.88 13.89 0.9C13.98 0.92 14.07 0.95 14.16 0.99C14.25 1.03 14.34 1.07 14.42 1.13C14.5 1.18 14.58 1.25 14.65 1.32C14.72 1.39 14.78 1.47 14.83 1.55C14.89 1.63 14.93 1.72 14.97 1.82C15.01 1.91 15.03 2 15.05 2.1C15.07 2.2 15.08 2.3 15.08 2.4C15.08 2.5 15.07 2.6 15.05 2.7C15.03 2.8 15.01 2.89 14.97 2.99C14.93 3.08 14.89 3.17 14.83 3.25C14.78 3.34 14.72 3.41 14.65 3.48C14.58 3.56 14.5 3.62 14.42 3.67C14.34 3.73 14.25 3.78 14.16 3.82C14.07 3.85 13.98 3.88 13.89 3.9C13.79 3.92 13.69 3.93 13.6 3.93C13.5 3.93 13.4 3.92 13.3 3.9C13.21 3.88 13.12 3.85 13.03 3.82C12.94 3.78 12.85 3.73 12.77 3.67C12.69 3.62 12.61 3.56 12.54 3.48C12.47 3.41 12.41 3.34 12.36 3.25C12.3 3.17 12.26 3.08 12.22 2.99C12.18 2.89 12.16 2.8 12.14 2.7C12.12 2.6 12.11 2.5 12.11 2.4ZM15.3 6.71L15.3 9.03C15.56 8.72 15.72 8.32 15.72 7.87C15.72 7.43 15.56 7.02 15.3 6.72L15.3 6.71ZM8.5 0.87C8.61 0.87 8.72 0.88 8.83 0.9C8.94 0.93 9.04 0.96 9.15 1C9.25 1.05 9.35 1.1 9.44 1.16C9.53 1.23 9.62 1.3 9.7 1.38C9.78 1.46 9.85 1.55 9.91 1.65C9.97 1.74 10.02 1.84 10.07 1.95C10.11 2.06 10.14 2.17 10.16 2.28C10.18 2.39 10.2 2.51 10.2 2.62C10.2 2.73 10.18 2.85 10.16 2.96C10.14 3.07 10.11 3.18 10.07 3.29C10.02 3.4 9.97 3.5 9.91 3.59C9.85 3.69 9.78 3.78 9.7 3.86C9.62 3.94 9.53 4.01 9.44 4.08C9.35 4.14 9.25 4.19 9.15 4.24C9.04 4.28 8.94 4.31 8.83 4.34C8.72 4.36 8.61 4.37 8.5 4.37C8.38 4.37 8.27 4.36 8.16 4.34C8.05 4.31 7.95 4.28 7.84 4.24C7.74 4.19 7.64 4.14 7.55 4.08C7.46 4.01 7.37 3.94 7.29 3.86C7.21 3.78 7.14 3.69 7.08 3.59C7.02 3.5 6.97 3.4 6.92 3.29C6.88 3.18 6.85 3.07 6.83 2.96C6.81 2.85 6.8 2.73 6.8 2.62C6.8 2.51 6.81 2.39 6.83 2.28C6.85 2.17 6.88 2.06 6.92 1.95C6.97 1.84 7.02 1.74 7.08 1.65C7.14 1.55 7.21 1.46 7.29 1.38C7.37 1.3 7.46 1.23 7.55 1.16C7.64 1.1 7.74 1.05 7.84 1C7.95 0.96 8.05 0.93 8.16 0.9C8.27 0.88 8.38 0.87 8.5 0.87ZM6.37 8.31C6.37 8.75 6.53 9.16 6.8 9.46L6.8 7.15C6.53 7.46 6.37 7.86 6.37 8.3L6.37 8.31ZM10.2 7.15L10.2 9.47C10.46 9.16 10.62 8.75 10.62 8.31C10.62 7.87 10.46 7.46 10.2 7.15L10.2 7.15ZM11.9 8.31C11.9 9.53 11.2 10.58 10.2 11.07L10.2 12.25C10.2 12.73 9.82 13.12 9.34 13.12L7.65 13.12C7.17 13.12 6.8 12.73 6.8 12.25L6.8 11.07C5.79 10.58 5.09 9.53 5.09 8.31C5.09 6.61 6.43 5.25 8.07 5.25L8.92 5.25C10.56 5.25 11.9 6.61 11.9 8.31Z" fill="#000000" fill-opacity="1.000000" fill-rule="nonzero"/>
	</g>
</svg>
