<svg width="25.322266" height="25.322266" viewBox="0 0 25.3223 25.3223" fill="none" xmlns="http://www.w3.org/2000/svg" xmlns:xlink="http://www.w3.org/1999/xlink">
	<desc>
			Created with Pixso.
	</desc>
	<defs/>
	<path id="path" d="M20.15 10.78C20.15 15.96 15.96 20.15 10.78 20.15C5.6 20.15 1.4 15.96 1.4 10.78C1.4 5.6 5.6 1.4 10.78 1.4C15.96 1.4 20.15 5.6 20.15 10.78ZM16.43 18.41L16.4 18.41C15.84 17.86 15.84 16.98 16.4 16.42C16.96 15.86 17.83 15.86 18.39 16.42L18.39 16.45L16.43 18.41ZM24.87 22.91L24.9 22.91C25.46 23.46 25.46 24.34 24.9 24.9C24.34 25.46 23.47 25.46 22.91 24.9L22.91 24.87L24.87 22.91Z" fill="#000000" fill-opacity="0" fill-rule="nonzero"/>
	<path id="path" d="M17.4 17.42L23.9 23.9M10.78 20.15C5.6 20.15 1.4 15.96 1.4 10.78C1.4 5.6 5.6 1.4 10.78 1.4C15.96 1.4 20.15 5.6 20.15 10.78C20.15 15.96 15.96 20.15 10.78 20.15Z" stroke="#CDA407" stroke-opacity="0.831373" stroke-width="2.816000" stroke-linejoin="round" stroke-linecap="round"/>
</svg>
