<svg width="17.000000" height="17.000000" viewBox="0 0 17 17" fill="none" xmlns="http://www.w3.org/2000/svg" xmlns:xlink="http://www.w3.org/1999/xlink">
	<desc>
			Created with Pixso.
	</desc>
	<defs>
		<clipPath id="clip8_771">
			<rect id="free-icon-font-time-forward-15911935.svg" width="17.000000" height="17.000000" fill="white" fill-opacity="0"/>
		</clipPath>
	</defs>
	<g clip-path="url(#clip8_771)">
		<path id="path" d="M8.5 4.6L8.5 8.3L11.16 9.97C11.33 10.07 11.38 10.29 11.27 10.45C11.21 10.56 11.09 10.62 10.97 10.62C10.91 10.62 10.84 10.6 10.79 10.57L7.95 8.8C7.85 8.73 7.79 8.62 7.79 8.5L7.79 4.6C7.79 4.4 7.95 4.25 8.14 4.25C8.34 4.25 8.5 4.4 8.5 4.6ZM12.39 6.02C12.39 6.21 12.55 6.37 12.75 6.37L15.93 6.37C16.52 6.37 17 5.89 17 5.31L17 2.12C17 1.92 16.84 1.77 16.64 1.77C16.45 1.77 16.29 1.92 16.29 2.12L16.29 5.11C14.95 2.03 11.88 0 8.5 0C3.81 0 0 3.81 0 8.5C0 13.18 3.81 17 8.5 17C13.02 16.98 16.76 13.44 16.98 8.92C16.99 8.73 16.84 8.56 16.65 8.55C16.45 8.53 16.29 8.69 16.28 8.89C16.07 13.04 12.66 16.29 8.5 16.29C4.2 16.29 0.7 12.79 0.7 8.5C0.7 4.2 4.2 0.7 8.5 0.7C11.69 0.7 14.59 2.69 15.75 5.66L12.75 5.66C12.55 5.66 12.39 5.82 12.39 6.02Z" fill="#000000" fill-opacity="1.000000" fill-rule="nonzero"/>
	</g>
</svg>
