<svg width="17.000000" height="17.000000" viewBox="0 0 17 17" fill="none" xmlns="http://www.w3.org/2000/svg" xmlns:xlink="http://www.w3.org/1999/xlink">
	<desc>
			Created with Pixso.
	</desc>
	<defs>
		<clipPath id="clip8_766">
			<rect id="free-icon-font-user-gear-10416228.svg" width="17.000000" height="17.000000" fill="white" fill-opacity="0"/>
		</clipPath>
	</defs>
	<g clip-path="url(#clip8_766)">
		<path id="path" d="M16.57 14.01L15.63 13.48C15.82 13.04 15.93 12.55 15.93 12.04C15.93 11.52 15.82 11.04 15.63 10.6L16.57 10.06C16.74 9.96 16.79 9.75 16.7 9.58C16.6 9.41 16.38 9.35 16.21 9.45L15.27 9.98C14.7 9.17 13.79 8.62 12.75 8.51L12.75 7.43C12.75 7.24 12.59 7.08 12.39 7.08C12.2 7.08 12.04 7.24 12.04 7.43L12.04 8.51C11 8.62 10.09 9.17 9.51 9.98L8.57 9.45C8.4 9.35 8.18 9.41 8.08 9.58C7.99 9.75 8.05 9.96 8.22 10.06L9.16 10.6C8.96 11.04 8.85 11.52 8.85 12.04C8.85 12.55 8.96 13.04 9.16 13.48L8.22 14.01C8.05 14.11 7.99 14.33 8.08 14.5C8.15 14.61 8.27 14.67 8.39 14.67C8.45 14.67 8.51 14.66 8.57 14.63L9.51 14.09C10.09 14.9 11 15.46 12.04 15.56L12.04 16.64C12.04 16.84 12.2 17 12.39 17C12.59 17 12.75 16.84 12.75 16.64L12.75 15.56C13.79 15.46 14.7 14.9 15.28 14.09L16.21 14.63C16.27 14.66 16.33 14.67 16.39 14.67C16.51 14.67 16.63 14.61 16.7 14.5C16.8 14.33 16.74 14.11 16.57 14.01ZM12.39 14.87C10.83 14.87 9.56 13.6 9.56 12.04C9.56 10.47 10.83 9.2 12.39 9.2C13.95 9.2 15.22 10.47 15.22 12.04C15.22 13.6 13.95 14.87 12.39 14.87ZM6.37 8.5C8.71 8.5 10.62 6.59 10.62 4.25C10.62 1.9 8.71 0 6.37 0C4.03 0 2.12 1.9 2.12 4.25C2.12 6.59 4.03 8.5 6.37 8.5ZM6.37 0.7C8.32 0.7 9.91 2.29 9.91 4.25C9.91 6.2 8.32 7.79 6.37 7.79C4.42 7.79 2.83 6.2 2.83 4.25C2.83 2.29 4.42 0.7 6.37 0.7ZM6.43 10.26C6.44 10.45 6.29 10.62 6.1 10.63C3.07 10.77 0.7 13.26 0.7 16.29L0.7 16.64C0.7 16.84 0.54 17 0.35 17C0.15 17 0 16.84 0 16.64L0 16.29C0 12.88 2.66 10.08 6.06 9.92C6.25 9.91 6.42 10.06 6.43 10.26Z" fill="#000000" fill-opacity="1.000000" fill-rule="nonzero"/>
	</g>
</svg>
